<svg width="47" height="75" viewBox="0 0 47 75" fill="none" xmlns="http://www.w3.org/2000/svg">
<path d="M46.7031 9.31835V1.76952C46.7031 1.11523 45.9512 0.753899 45.4434 1.15429L1.41994 35.5391C1.0459 35.8299 0.74324 36.2024 0.535047 36.6281C0.326853 37.0537 0.218628 37.5213 0.218628 37.9951C0.218628 38.4689 0.326853 38.9365 0.535047 39.3622C0.74324 39.7878 1.0459 40.1603 1.41994 40.4512L45.4434 74.8359C45.961 75.2363 46.7031 74.875 46.7031 74.2207V66.6719C46.7031 66.1934 46.4785 65.7344 46.1074 65.4414L10.9512 38L46.1074 10.5488C46.4785 10.2559 46.7031 9.79687 46.7031 9.31835Z" fill="black"/>
</svg>
