<svg width="47" height="76" viewBox="0 0 47 76" fill="none" xmlns="http://www.w3.org/2000/svg">
<path d="M45.7754 35.5391L1.75196 1.1543C1.63693 1.06373 1.49868 1.00745 1.3531 0.991913C1.20752 0.976377 1.06051 1.00222 0.928952 1.06647C0.797396 1.13071 0.68663 1.23077 0.609373 1.35513C0.532116 1.47949 0.491502 1.62313 0.492196 1.76953V9.31836C0.492196 9.79687 0.716806 10.2559 1.0879 10.5488L36.2441 38L1.0879 65.4512C0.707041 65.7441 0.492196 66.2031 0.492196 66.6816V74.2305C0.492196 74.8848 1.24415 75.2461 1.75196 74.8457L45.7754 40.4609C46.1496 40.1691 46.4523 39.7957 46.6605 39.3693C46.8686 38.9428 46.9769 38.4745 46.9769 38C46.9769 37.5255 46.8686 37.0572 46.6605 36.6307C46.4523 36.2043 46.1496 35.8309 45.7754 35.5391Z" fill="black"/>
</svg>
